HIERARCHY
ROOT Hips
{
	OFFSET	0.00	0.00	0.00
	CHANNELS 6 Xposition Yposition Zposition Zrotation Xrotation Yrotation
	JOINT LeftHip
	{
		OFFSET	 3.430000	 0.000000	 0.000000
		CHANNELS 3 Zrotation Xrotation Yrotation
		JOINT LeftKnee
		{
			OFFSET	 0.000000	-18.469999	 0.000000
			CHANNELS 3 Zrotation Xrotation Yrotation
			JOINT LeftAnkle
			{
				OFFSET	 0.000000	-17.950001	 0.000000
				CHANNELS 3 Zrotation Xrotation Yrotation
				End Site 
				{
					OFFSET	 0.000000	-3.119996	 0.000000
				}
			}
		}
	}
	JOINT RightHip
	{
		OFFSET	-3.430000	 0.000000	 0.000000
		CHANNELS 3 Zrotation Xrotation Yrotation
		JOINT RightKnee
		{
			OFFSET	 0.000000	-18.809999	 0.000000
			CHANNELS 3 Zrotation Xrotation Yrotation
			JOINT RightAnkle
			{
				OFFSET	 0.000000	-17.570000	 0.000000
				CHANNELS 3 Zrotation Xrotation Yrotation
				End Site 
				{
					OFFSET	 0.000000	-3.250000	 0.000000
				}
			}
		}
	}
	JOINT Chest
	{
		OFFSET	 0.000000	 4.570000	 0.000000
		CHANNELS 3 Zrotation Xrotation Yrotation
		JOINT LeftCollar
		{
			OFFSET	 1.060000	 15.330000	 1.760000
			CHANNELS 3 Zrotation Xrotation Yrotation
			JOINT LeftShoulder
			{
				OFFSET	 5.810000	 0.000000	 0.000000
				CHANNELS 3 Zrotation Xrotation Yrotation
				JOINT LeftElbow
				{
					OFFSET	 0.000000	-12.080000	 0.000000
					CHANNELS 3 Zrotation Xrotation Yrotation
					JOINT LeftWrist
					{
						OFFSET	 0.000000	-9.820000	 0.000000
						CHANNELS 3 Zrotation Xrotation Yrotation
						End Site 
						{
							OFFSET	 0.000000	-7.369996	 0.000000
						}
					}
				}
			}
		}
		JOINT RightCollar
		{
			OFFSET	-1.060000	 15.330000	 1.760000
			CHANNELS 3 Zrotation Xrotation Yrotation
			JOINT RightShoulder
			{
				OFFSET	-6.060000	 0.000000	 0.000000
				CHANNELS 3 Zrotation Xrotation Yrotation
				JOINT RightElbow
				{
					OFFSET	 0.000000	-11.900000	 0.000000
					CHANNELS 3 Zrotation Xrotation Yrotation
					JOINT RightWrist
					{
						OFFSET	 0.000000	-9.520000	 0.000000
						CHANNELS 3 Zrotation Xrotation Yrotation
						End Site 
						{
							OFFSET	 0.000000	-7.140012	 0.000000
						}
					}
				}
			}
		}
		JOINT Neck
		{
			OFFSET	 0.000000	 17.620001	 0.000000
			CHANNELS 3 Zrotation Xrotation Yrotation
			JOINT Head
			{
				OFFSET	 0.000000	 5.190000	 0.000000
				CHANNELS 3 Zrotation Xrotation Yrotation
				End Site 
				{
					OFFSET	 0.000000	 4.140008	 0.000000
				}
			}
		}
	}
}
MOTION
Frames:     21
Frame Time: 0.033333
 0.00	 39.88	-0.01	-1.79	-18.43	-1.74	 5.02	-0.34	 0.03	 6.61	 42.19	 7.67	-3.87	-7.61	 1.40	 3.65	 15.11	-0.95	 2.33	 11.06	-15.20	-7.25	-10.08	 1.61	 4.89	 18.33	 11.12	-17.68	 0.00	 0.60	 40.98	 9.99	 22.36	 0.00	-30.82	 11.92	 0.00	 0.00	 0.00	 10.97	 0.00	 12.96	-37.45	-2.92	 9.36	-180.00	-80.59	 157.44	 0.00	 0.00	 0.00	-35.59	 52.18	 0.00	 11.29	-39.90	 61.74	
 0.11	 39.87	-0.01	-2.31	-17.29	-3.05	 3.19	-4.22	 0.24	 7.38	 40.49	-1.01	-3.87	-7.94	 1.38	 3.46	 13.75	-0.82	 2.47	 11.44	-14.02	-7.25	-10.10	 1.61	 5.82	 17.00	 12.55	-17.36	 0.00	 2.00	 42.28	 10.77	 34.97	-0.85	-22.68	 14.90	 0.00	 0.00	 0.00	 10.01	 0.00	 11.77	-40.78	-3.61	 6.09	-178.56	-87.20	 158.39	 0.00	 0.00	 0.00	-36.14	 51.71	 0.00	 10.04	-38.83	 61.13	
 0.22	 39.88	 0.02	-2.83	-16.47	-4.56	 1.98	-6.94	 0.24	 6.27	 37.48	-5.85	-3.87	-7.23	 1.43	 3.26	 12.76	-0.72	 2.52	 11.87	-12.69	-7.25	-10.11	 1.60	 6.78	 15.96	 14.27	-16.96	 0.00	 3.28	 44.28	 12.02	 51.41	-0.44	-17.87	 20.64	 0.00	 0.00	 0.00	 9.19	 0.00	 10.84	-44.55	-3.26	 2.86	-0.03	-85.90	-23.56	 0.00	 0.00	 0.00	-36.74	 50.88	 0.00	 9.12	-37.86	 60.76	
 0.32	 39.92	 0.19	-3.51	-17.17	-7.03	 1.79	-6.29	 0.20	 2.67	 31.81	-3.40	-3.86	-5.65	 1.54	 2.98	 13.46	-0.69	 2.23	 12.43	-10.34	-7.26	-10.29	 1.58	 7.48	 16.60	 16.65	-16.32	 0.00	 4.70	 47.12	 13.31	 65.41	 0.63	-16.14	 26.83	 0.00	 0.00	 0.00	 8.37	 0.00	 9.94	-48.32	-2.20	-0.50	 0.41	-78.48	-23.57	 0.00	 0.00	 0.00	-37.20	 49.91	 0.00	 8.35	-37.07	 60.23	
 0.41	 39.98	 0.41	-4.24	-18.69	-9.55	 2.15	-3.46	 0.13	-0.89	 24.10	 2.48	-3.85	-3.92	 1.65	 2.63	 15.03	-0.68	 1.74	 13.02	-7.95	-7.26	-10.55	 1.55	 7.89	 18.31	 18.82	-15.48	 0.00	 6.33	 50.63	 13.62	 74.10	 0.89	-15.79	 28.43	 0.00	 0.00	 0.00	 7.48	 0.00	 9.08	-51.78	-0.70	-4.32	 0.26	-70.66	-24.18	 0.00	 0.00	 0.00	-37.48	 48.95	 0.00	 7.83	-36.60	 59.47	
 0.51	 40.04	 0.57	-4.63	-20.11	-10.99	 2.54	-0.28	 0.01	-1.85	 16.15	 3.45	-3.84	-1.62	 1.81	 2.23	 16.35	-0.63	 1.32	 13.69	-6.53	-7.27	-10.88	 1.50	 8.06	 20.03	 19.84	-14.63	 0.00	 7.74	 54.60	 12.29	 78.58	 0.77	-15.73	 28.10	 0.00	 0.00	 0.00	 6.53	 0.00	 8.31	-54.98	 1.46	-8.71	 0.13	-62.84	-24.81	 0.00	 0.00	 0.00	-37.60	 48.04	 0.00	 7.69	-36.54	 58.56	
 0.67	 40.07	 0.56	-4.20	-20.53	-10.46	 2.80	 1.10	-0.05	-1.14	 9.89	 1.00	-3.84	 1.15	 1.99	 1.80	 16.25	-0.50	 1.12	 14.52	-6.89	-7.28	-11.17	 1.47	 8.01	 20.72	 19.18	-13.94	 0.00	 8.31	 58.66	 9.90	 80.83	 0.70	-15.75	 27.82	 0.00	 0.00	 0.00	 5.54	 0.00	 7.40	-58.07	 3.94	-13.48	 0.08	-55.07	-25.42	 0.00	 0.00	 0.00	-37.54	 47.16	 0.00	 8.02	-36.86	 57.73	
 0.93	 40.06	 0.21	-2.63	-18.76	-7.47	 2.87	-1.60	 0.08	 0.34	 6.94	-3.11	-3.85	 3.73	 2.17	 1.17	 13.35	-0.27	 1.45	 15.47	-9.49	-7.28	-11.11	 1.48	 7.77	 19.41	 16.37	-13.47	 0.00	 7.94	 62.35	 7.16	 81.32	 0.80	-15.86	 28.03	 0.00	 0.00	 0.00	 4.40	 0.00	 6.30	-60.86	 6.07	-18.52	 0.06	-47.68	-26.06	 0.00	 0.00	 0.00	-37.30	 46.25	 0.00	 8.76	-37.38	 57.16	
 1.22	 40.05	-0.24	-1.04	-16.34	-4.51	 3.45	-5.36	 0.32	 1.77	 5.97	-5.76	-3.86	 5.77	 2.31	 0.27	 9.55	-0.04	 1.80	 16.80	-12.01	-7.27	-10.99	 1.49	 7.30	 17.64	 12.75	-13.08	 0.00	 6.94	 65.48	 4.84	 79.87	 0.79	-16.06	 27.68	 0.00	 0.00	 0.00	 3.30	 0.00	 5.44	-63.05	 8.16	-23.30	 0.05	-41.29	-26.66	 0.00	 0.00	 0.00	-36.84	 45.25	 0.00	 9.69	-37.90	 56.86	
 1.47	 40.09	-0.52	 0.17	-15.32	-3.68	 5.09	-6.45	 0.57	 2.75	 5.36	-5.10	-3.87	 7.47	 2.42	-0.97	 7.20	 0.12	 1.65	 18.52	-12.27	-7.27	-11.09	 1.48	 6.21	 17.26	 9.73	-12.73	 0.00	 5.51	 68.01	 3.45	 76.51	 0.69	-16.16	 27.28	 0.00	 0.00	 0.00	 2.38	 0.00	 5.11	-64.27	 11.02	-27.27	-0.01	-36.40	-27.22	 0.00	 0.00	 0.00	-36.14	 44.07	 0.00	 10.54	-38.33	 56.72	
 1.75	 40.18	-0.72	 1.33	-14.78	-4.36	 7.35	-6.20	 0.80	 3.50	 5.63	-2.71	-3.89	 9.31	 2.55	-2.57	 5.25	 0.23	 1.28	 20.36	-11.05	-7.28	-11.21	 1.46	 4.61	 17.37	 7.13	-12.36	 0.00	 4.01	 69.34	 2.53	 70.12	 0.90	-16.00	 28.32	 0.00	 0.00	 0.00	 1.67	 0.00	 4.85	-64.55	 14.29	-30.45	 0.01	-32.79	-27.52	 0.00	 0.00	 0.00	-35.30	 42.70	 0.00	 11.20	-38.73	 56.73	
 2.09	 40.26	-0.93	 2.48	-14.12	-6.07	 9.73	-5.28	 0.90	 4.12	 6.72	-0.14	-3.92	 11.43	 2.69	-4.40	 2.89	 0.22	 0.87	 22.34	-8.92	-7.28	-11.39	 1.44	 2.72	 17.60	 4.63	-12.00	 0.00	 2.74	 68.56	 1.93	 60.62	 0.83	-15.89	 28.21	 0.00	 0.00	 0.00	 1.16	 0.00	 4.07	-63.44	 16.60	-33.22	 0.02	-30.09	-27.72	 0.00	 0.00	 0.00	-34.42	 41.28	 0.00	 11.77	-39.28	 56.97	
 2.51	 40.29	-1.15	 3.43	-13.54	-8.49	 11.98	-3.42	 0.73	 4.54	 8.49	 1.60	-3.94	 12.77	 2.79	-6.26	 0.29	 0.03	 0.57	 24.49	-6.36	-7.29	-11.63	 1.41	 1.01	 18.22	 1.80	-12.02	 0.00	 1.52	 65.85	 1.70	 50.96	 0.21	-16.15	 25.29	 0.00	 0.00	 0.00	 1.10	 0.00	 2.94	-61.31	 17.53	-35.77	-0.02	-27.88	-27.92	 0.00	 0.00	 0.00	-33.52	 39.89	 0.00	 12.32	-40.10	 57.51	
 3.03	 40.23	-1.37	 4.06	-12.96	-11.16	 13.91	-0.93	 0.23	 4.57	 11.21	 2.47	-3.92	 11.98	 2.73	-8.02	-2.61	-0.37	 0.62	 26.94	-3.80	-7.30	-11.99	 1.36	-0.12	 18.89	-1.62	-12.64	 0.00	-0.09	 61.76	 1.65	 43.07	 0.11	-16.67	 23.92	 0.00	 0.00	 0.00	 1.56	 0.00	 2.15	-58.50	 18.49	-38.57	-0.01	-25.83	-28.00	 0.00	 0.00	 0.00	-32.54	 38.60	 0.00	 12.83	-41.21	 58.29	
 3.63	 40.04	-1.62	 4.34	-11.97	-13.78	 15.61	 1.41	-0.39	 4.54	 14.55	 2.77	-3.90	 10.27	 2.61	-9.55	-6.21	-1.04	 1.07	 29.87	-1.46	-7.31	-12.57	 1.28	-0.37	 19.05	-5.52	-13.54	 0.00	-2.37	 56.36	 1.55	 36.18	 0.41	-17.33	 24.05	 0.00	 0.00	 0.00	 2.41	 0.00	 1.83	-54.77	 20.34	-42.22	-0.01	-23.84	-28.04	 0.00	 0.00	 0.00	-31.39	 37.39	 0.00	 13.20	-42.58	 59.21	
 4.31	 39.69	-1.90	 4.29	-10.69	-16.15	 17.08	 3.52	-1.08	 4.43	 18.29	 3.59	-3.88	 8.21	 2.47	-10.82	-10.38	-1.97	 1.95	 33.34	 0.16	-7.33	-13.26	 1.19	 0.12	 19.11	-9.67	-14.32	 0.00	-5.21	 49.67	 0.60	 30.22	 0.31	-18.25	 22.65	 0.00	 0.00	 0.00	 3.77	 0.00	 1.70	-50.25	 22.36	-47.11	 0.05	-21.71	-27.91	 0.00	 0.00	 0.00	-30.00	 36.24	 0.00	 13.39	-44.08	 60.10	
 5.07	 39.16	-2.23	 4.08	-9.09	-17.70	 18.40	 4.77	-1.59	 4.02	 22.69	 5.70	-3.86	 5.89	 2.31	-11.99	-14.96	-3.14	 3.32	 37.24	 0.68	-7.36	-13.94	 1.10	 1.23	 19.13	-14.38	-14.82	 0.00	-8.29	 42.78	-2.27	 25.13	 0.20	-19.12	 21.29	 0.00	 0.00	 0.00	 5.62	 0.00	 1.48	-45.36	 23.85	-53.93	 0.07	-19.26	-27.73	 0.00	 0.00	 0.00	-28.39	 35.13	 0.00	 13.40	-45.59	 60.85	
 5.88	 38.48	-2.62	 3.83	-7.45	-18.12	 19.64	 5.01	-1.78	 3.14	 27.88	 8.50	-3.84	 3.43	 2.15	-13.31	-19.46	-4.51	 4.84	 41.26	 0.43	-7.37	-14.39	 1.04	 2.69	 19.32	-19.46	-15.00	 0.00	-11.06	 36.94	-7.75	 19.73	 0.01	-19.73	 20.05	 0.00	 0.00	 0.00	 7.82	 0.00	 1.08	-40.17	 24.79	-63.08	 0.05	-16.59	-27.29	 0.00	 0.00	 0.00	-26.67	 34.05	 0.00	 13.28	-47.04	 61.37	
 6.76	 37.73	-3.08	 3.68	-5.76	-17.49	 20.77	 4.01	-1.52	 1.80	 33.48	 11.62	-3.84	 1.47	 2.02	-14.95	-23.81	-6.15	 6.19	 45.04	-0.31	-7.37	-14.48	 1.03	 4.24	 19.61	-24.64	-14.53	 0.00	-13.56	 32.20	-15.46	 13.82	-0.41	-20.67	 17.84	 0.00	 0.00	 0.00	 10.12	 0.00	 0.70	-34.72	 25.52	-73.50	 0.01	-14.00	-26.49	 0.00	 0.00	 0.00	-24.94	 33.07	 0.00	 12.98	-48.41	 61.55	
 7.72	 37.00	-3.66	 3.62	-3.72	-16.05	 21.86	 1.69	-0.68	-0.25	 38.71	 15.45	-3.84	 0.77	 1.97	-16.82	-28.05	-8.09	 6.98	 47.98	-1.37	-7.37	-14.22	 1.06	 5.83	 19.61	-29.54	-13.18	 0.00	-16.19	 28.68	-23.95	 9.00	-0.72	-22.38	 15.51	 0.00	 0.00	 0.00	 12.33	 0.00	 0.58	-29.36	 26.10	-83.59	-0.02	-11.64	-25.43	 0.00	 0.00	 0.00	-23.28	 32.22	 0.00	 12.35	-49.67	 61.21	
 8.75	 36.38	-4.33	 3.53	-1.61	-14.12	 22.98	-1.20	 0.51	-3.59	 42.60	 20.32	-3.84	 0.79	 1.97	-18.64	-31.77	-10.07	 6.56	 49.69	-2.09	-7.34	-13.54	 1.16	 7.33	 19.57	-33.74	-11.08	 0.00	-19.00	 27.52	-31.73	 7.02	-0.96	-25.07	 13.04	 0.00	 0.00	 0.00	 14.27	 0.00	 0.70	-24.61	 26.23	-91.87	-0.06	-9.88	-24.38	 0.00	 0.00	 0.00	-21.76	 31.47	 0.00	 11.21	-50.71	 60.25	
